<svg width="630" height="108" viewBox="0 0 630 108" fill="none" xmlns="http://www.w3.org/2000/svg">
<path d="M10.1822 9.55H0.532227V3.25H27.9822V9.55H18.3322V39H10.1822V9.55ZM33.001 0.999997H40.251V17C40.9176 15.7 41.951 14.5833 43.351 13.65C44.751 12.7167 46.551 12.25 48.751 12.25C50.051 12.25 51.2343 12.45 52.301 12.85C53.3676 13.25 54.301 13.85 55.101 14.65C55.8676 15.4833 56.4676 16.55 56.901 17.85C57.3343 19.1167 57.551 20.6167 57.551 22.35V39H50.301V23.4C50.301 21.6 49.9343 20.2833 49.201 19.45C48.4676 18.5833 47.301 18.15 45.701 18.15C44.1343 18.15 42.8343 18.6333 41.801 19.6C40.7676 20.5333 40.251 21.9667 40.251 23.9V39H33.001V0.999997ZM76.3986 39.55C74.432 39.55 72.6153 39.25 70.9486 38.65C69.282 38.05 67.8486 37.1667 66.6486 36C65.4153 34.8667 64.4486 33.4833 63.7486 31.85C63.082 30.2167 62.7486 28.35 62.7486 26.25V25.85C62.7486 23.7833 63.082 21.9167 63.7486 20.25C64.4486 18.5833 65.4153 17.15 66.6486 15.95C67.8486 14.7833 69.2653 13.8833 70.8986 13.25C72.532 12.5833 74.2986 12.25 76.1986 12.25C77.8986 12.25 79.5153 12.5167 81.0486 13.05C82.582 13.55 83.932 14.3333 85.0986 15.4C86.2653 16.4667 87.1986 17.85 87.8986 19.55C88.5986 21.2167 88.9486 23.2167 88.9486 25.55V27.55H70.0986C70.1986 29.75 70.7986 31.45 71.8986 32.65C73.032 33.8167 74.5986 34.4 76.5986 34.4C78.2986 34.4 79.5653 34.0667 80.3986 33.4C81.2653 32.7333 81.8153 31.85 82.0486 30.75H88.8986C88.4653 33.5833 87.1653 35.7667 84.9986 37.3C82.8653 38.8 79.9986 39.55 76.3986 39.55ZM81.8986 23.1C81.7653 21.1 81.2153 19.6333 80.2486 18.7C79.282 17.7333 77.932 17.25 76.1986 17.25C74.5653 17.25 73.2153 17.7667 72.1486 18.8C71.1153 19.8 70.4653 21.2333 70.1986 23.1H81.8986ZM105.364 12.85H112.614V16.95C113.348 15.6833 114.431 14.5833 115.864 13.65C117.331 12.7167 119.031 12.25 120.964 12.25C122.564 12.25 124.048 12.55 125.414 13.15C126.814 13.7167 128.031 14.5667 129.064 15.7C130.098 16.8333 130.898 18.2333 131.464 19.9C132.064 21.5667 132.364 23.4833 132.364 25.65V26.05C132.364 28.2167 132.064 30.1333 131.464 31.8C130.898 33.4667 130.114 34.8667 129.114 36C128.081 37.1667 126.864 38.05 125.464 38.65C124.098 39.25 122.598 39.55 120.964 39.55C118.931 39.55 117.198 39.1167 115.764 38.25C114.331 37.35 113.281 36.2667 112.614 35V47.9H105.364V12.85ZM118.814 33.9C120.814 33.9 122.348 33.25 123.414 31.95C124.481 30.6167 125.014 28.6667 125.014 26.1V25.7C125.014 23.0333 124.431 21.05 123.264 19.75C122.098 18.45 120.598 17.8 118.764 17.8C116.864 17.8 115.314 18.4667 114.114 19.8C112.948 21.1 112.364 23.0667 112.364 25.7V26.1C112.364 28.7333 112.931 30.7 114.064 32C115.231 33.2667 116.814 33.9 118.814 33.9ZM137.835 12.85H145.085V17.85C145.918 16.0833 147.002 14.75 148.335 13.85C149.668 12.95 151.402 12.4833 153.535 12.45V19.2C150.835 19.1667 148.752 19.65 147.285 20.65C145.818 21.65 145.085 23.4 145.085 25.9V39H137.835V12.85ZM170.442 39.55C168.475 39.55 166.658 39.25 164.992 38.65C163.325 38.05 161.892 37.1667 160.692 36C159.458 34.8667 158.492 33.4833 157.792 31.85C157.125 30.2167 156.792 28.35 156.792 26.25V25.85C156.792 23.7833 157.125 21.9167 157.792 20.25C158.492 18.5833 159.458 17.15 160.692 15.95C161.892 14.7833 163.308 13.8833 164.942 13.25C166.575 12.5833 168.342 12.25 170.242 12.25C171.942 12.25 173.558 12.5167 175.092 13.05C176.625 13.55 177.975 14.3333 179.142 15.4C180.308 16.4667 181.242 17.85 181.942 19.55C182.642 21.2167 182.992 23.2167 182.992 25.55V27.55H164.142C164.242 29.75 164.842 31.45 165.942 32.65C167.075 33.8167 168.642 34.4 170.642 34.4C172.342 34.4 173.608 34.0667 174.442 33.4C175.308 32.7333 175.858 31.85 176.092 30.75H182.942C182.508 33.5833 181.208 35.7667 179.042 37.3C176.908 38.8 174.042 39.55 170.442 39.55ZM175.942 23.1C175.808 21.1 175.258 19.6333 174.292 18.7C173.325 17.7333 171.975 17.25 170.242 17.25C168.608 17.25 167.258 17.7667 166.192 18.8C165.158 19.8 164.508 21.2333 164.242 23.1H175.942ZM189.523 18H186.073V12.85H189.523V9.85C189.523 6.78333 190.34 4.5 191.973 3C193.64 1.46667 195.94 0.699998 198.873 0.699998C199.64 0.699998 200.307 0.749999 200.873 0.849999C201.473 0.916665 202.057 1.03333 202.623 1.2V6.65C202.257 6.51667 201.857 6.41666 201.423 6.35C200.99 6.25 200.507 6.2 199.973 6.2C198.807 6.2 197.973 6.53333 197.473 7.2C196.973 7.83333 196.723 8.65 196.723 9.65V12.85H202.423V18H196.723V39H189.523V18ZM218.537 39.55C216.571 39.55 214.754 39.25 213.087 38.65C211.421 38.05 209.987 37.1667 208.787 36C207.554 34.8667 206.587 33.4833 205.887 31.85C205.221 30.2167 204.887 28.35 204.887 26.25V25.85C204.887 23.7833 205.221 21.9167 205.887 20.25C206.587 18.5833 207.554 17.15 208.787 15.95C209.987 14.7833 211.404 13.8833 213.037 13.25C214.671 12.5833 216.437 12.25 218.337 12.25C220.037 12.25 221.654 12.5167 223.187 13.05C224.721 13.55 226.071 14.3333 227.237 15.4C228.404 16.4667 229.337 17.85 230.037 19.55C230.737 21.2167 231.087 23.2167 231.087 25.55V27.55H212.237C212.337 29.75 212.937 31.45 214.037 32.65C215.171 33.8167 216.737 34.4 218.737 34.4C220.437 34.4 221.704 34.0667 222.537 33.4C223.404 32.7333 223.954 31.85 224.187 30.75H231.037C230.604 33.5833 229.304 35.7667 227.137 37.3C225.004 38.8 222.137 39.55 218.537 39.55ZM224.037 23.1C223.904 21.1 223.354 19.6333 222.387 18.7C221.421 17.7333 220.071 17.25 218.337 17.25C216.704 17.25 215.354 17.7667 214.287 18.8C213.254 19.8 212.604 21.2333 212.337 23.1H224.037ZM236.419 12.85H243.669V17.85C244.502 16.0833 245.586 14.75 246.919 13.85C248.252 12.95 249.986 12.4833 252.119 12.45V19.2C249.419 19.1667 247.336 19.65 245.869 20.65C244.402 21.65 243.669 23.4 243.669 25.9V39H236.419V12.85ZM257.464 12.85H264.714V17.85C265.547 16.0833 266.631 14.75 267.964 13.85C269.297 12.95 271.031 12.4833 273.164 12.45V19.2C270.464 19.1667 268.381 19.65 266.914 20.65C265.447 21.65 264.714 23.4 264.714 25.9V39H257.464V12.85ZM290.071 39.55C288.104 39.55 286.287 39.25 284.621 38.65C282.954 38.05 281.521 37.1667 280.321 36C279.087 34.8667 278.121 33.4833 277.421 31.85C276.754 30.2167 276.421 28.35 276.421 26.25V25.85C276.421 23.7833 276.754 21.9167 277.421 20.25C278.121 18.5833 279.087 17.15 280.321 15.95C281.521 14.7833 282.937 13.8833 284.571 13.25C286.204 12.5833 287.971 12.25 289.871 12.25C291.571 12.25 293.187 12.5167 294.721 13.05C296.254 13.55 297.604 14.3333 298.771 15.4C299.937 16.4667 300.871 17.85 301.571 19.55C302.271 21.2167 302.621 23.2167 302.621 25.55V27.55H283.771C283.871 29.75 284.471 31.45 285.571 32.65C286.704 33.8167 288.271 34.4 290.271 34.4C291.971 34.4 293.237 34.0667 294.071 33.4C294.937 32.7333 295.487 31.85 295.721 30.75H302.571C302.137 33.5833 300.837 35.7667 298.671 37.3C296.537 38.8 293.671 39.55 290.071 39.55ZM295.571 23.1C295.437 21.1 294.887 19.6333 293.921 18.7C292.954 17.7333 291.604 17.25 289.871 17.25C288.237 17.25 286.887 17.7667 285.821 18.8C284.787 19.8 284.137 21.2333 283.871 23.1H295.571ZM317.752 39.55C316.152 39.55 314.669 39.2667 313.302 38.7C311.935 38.1333 310.735 37.2833 309.702 36.15C308.669 35.05 307.852 33.6833 307.252 32.05C306.685 30.3833 306.402 28.4667 306.402 26.3V25.9C306.402 23.7667 306.685 21.85 307.252 20.15C307.852 18.45 308.669 17.0167 309.702 15.85C310.735 14.6833 311.952 13.8 313.352 13.2C314.752 12.5667 316.269 12.25 317.902 12.25C320.002 12.25 321.719 12.6667 323.052 13.5C324.385 14.3333 325.419 15.4167 326.152 16.75V0.999997H333.352V39H326.152V34.65C325.485 35.9833 324.402 37.1333 322.902 38.1C321.402 39.0667 319.685 39.55 317.752 39.55ZM319.902 33.9C321.802 33.9 323.352 33.2667 324.552 32C325.752 30.7 326.352 28.7167 326.352 26.05V25.65C326.352 23.05 325.802 21.1 324.702 19.8C323.635 18.4667 322.102 17.8 320.102 17.8C318.069 17.8 316.502 18.4833 315.402 19.85C314.335 21.1833 313.802 23.15 313.802 25.75V26.15C313.802 28.75 314.369 30.7 315.502 32C316.635 33.2667 318.102 33.9 319.902 33.9ZM351.707 0.999997H358.907V39H351.707V0.999997ZM378.306 34.05C380.34 34.05 381.906 33.35 383.006 31.95C384.14 30.55 384.706 28.6 384.706 26.1V25.75C384.706 23.25 384.14 21.3 383.006 19.9C381.906 18.4667 380.34 17.75 378.306 17.75C376.306 17.75 374.74 18.45 373.606 19.85C372.473 21.2167 371.906 23.15 371.906 25.65V26.05C371.906 28.55 372.456 30.5167 373.556 31.95C374.656 33.35 376.24 34.05 378.306 34.05ZM378.256 39.55C376.29 39.55 374.473 39.2333 372.806 38.6C371.14 37.9667 369.69 37.0667 368.456 35.9C367.223 34.7667 366.256 33.3833 365.556 31.75C364.856 30.0833 364.506 28.2333 364.506 26.2V25.8C364.506 23.7667 364.856 21.9167 365.556 20.25C366.256 18.55 367.223 17.1167 368.456 15.95C369.69 14.7833 371.14 13.8833 372.806 13.25C374.506 12.5833 376.34 12.25 378.306 12.25C380.273 12.25 382.09 12.5667 383.756 13.2C385.456 13.8333 386.923 14.7333 388.156 15.9C389.356 17.0667 390.306 18.4833 391.006 20.15C391.706 21.7833 392.056 23.6167 392.056 25.65V26.05C392.056 28.1167 391.706 29.9833 391.006 31.65C390.306 33.3167 389.34 34.7333 388.106 35.9C386.873 37.0667 385.406 37.9667 383.706 38.6C382.04 39.2333 380.223 39.55 378.256 39.55ZM409.353 39.55C407.453 39.55 405.67 39.2667 404.003 38.7C402.37 38.1 400.953 37.2333 399.753 36.1C398.553 34.9667 397.603 33.5833 396.903 31.95C396.236 30.2833 395.903 28.3833 395.903 26.25V25.85C395.903 23.75 396.253 21.8667 396.953 20.2C397.653 18.5 398.62 17.05 399.853 15.85C401.086 14.6833 402.52 13.8 404.153 13.2C405.786 12.5667 407.536 12.25 409.403 12.25C410.903 12.25 412.353 12.4333 413.753 12.8C415.186 13.1333 416.47 13.7 417.603 14.5C418.703 15.3 419.62 16.35 420.353 17.65C421.086 18.95 421.536 20.5333 421.703 22.4H414.853C414.62 20.9 414.053 19.7833 413.153 19.05C412.286 18.3167 411.086 17.95 409.553 17.95C407.653 17.95 406.136 18.6333 405.003 20C403.87 21.3333 403.303 23.25 403.303 25.75V26.15C403.303 28.7833 403.853 30.7667 404.953 32.1C406.086 33.4333 407.67 34.1 409.703 34.1C411.17 34.1 412.42 33.6833 413.453 32.85C414.52 32.0167 415.136 30.75 415.303 29.05H421.853C421.753 30.6167 421.403 32.05 420.803 33.35C420.203 34.6167 419.37 35.7 418.303 36.6C417.236 37.5333 415.953 38.2667 414.453 38.8C412.953 39.3 411.253 39.55 409.353 39.55ZM434.045 39.55C432.845 39.55 431.712 39.4 430.645 39.1C429.612 38.8 428.695 38.3333 427.895 37.7C427.095 37.0667 426.462 36.2667 425.995 35.3C425.528 34.3 425.295 33.1167 425.295 31.75C425.295 30.2167 425.628 28.9167 426.295 27.85C426.962 26.7833 427.895 25.9167 429.095 25.25C430.295 24.5833 431.728 24.1 433.395 23.8C435.062 23.5 436.895 23.35 438.895 23.35H441.845V22.3C441.845 20.7333 441.545 19.55 440.945 18.75C440.378 17.9167 439.262 17.5 437.595 17.5C436.162 17.5 435.095 17.8333 434.395 18.5C433.728 19.1667 433.312 20.0667 433.145 21.2H426.295C426.395 19.6667 426.762 18.3333 427.395 17.2C428.062 16.0667 428.912 15.1333 429.945 14.4C430.978 13.6667 432.178 13.1333 433.545 12.8C434.945 12.4333 436.445 12.25 438.045 12.25C439.645 12.25 441.112 12.4333 442.445 12.8C443.778 13.1333 444.945 13.6833 445.945 14.45C446.912 15.2167 447.662 16.2167 448.195 17.45C448.728 18.6833 448.995 20.1833 448.995 21.95V39H441.945V35.85C441.178 36.9167 440.178 37.8 438.945 38.5C437.745 39.2 436.112 39.55 434.045 39.55ZM436.195 34.5C437.795 34.5 439.128 34.1 440.195 33.3C441.295 32.4667 441.845 31.3167 441.845 29.85V27.65H439.045C436.945 27.65 435.312 27.9167 434.145 28.45C432.978 28.9833 432.395 29.95 432.395 31.35C432.395 32.3167 432.695 33.0833 433.295 33.65C433.895 34.2167 434.862 34.5 436.195 34.5ZM456.004 0.999997H463.204V39H456.004V0.999997ZM474.153 9.3C472.987 9.3 472.003 8.93333 471.203 8.2C470.437 7.43333 470.053 6.48333 470.053 5.35C470.053 4.21667 470.437 3.28333 471.203 2.55C472.003 1.78333 472.987 1.4 474.153 1.4C475.32 1.4 476.303 1.78333 477.103 2.55C477.903 3.28333 478.303 4.21667 478.303 5.35C478.303 6.48333 477.903 7.43333 477.103 8.2C476.303 8.93333 475.32 9.3 474.153 9.3ZM470.603 12.85H477.803V39H470.603V12.85ZM482.552 38.2L495.452 18.45H483.852V12.85H505.952V13.75L492.952 33.4H505.452V39H482.552V38.2ZM517.883 39.55C516.683 39.55 515.55 39.4 514.483 39.1C513.45 38.8 512.533 38.3333 511.733 37.7C510.933 37.0667 510.3 36.2667 509.833 35.3C509.366 34.3 509.133 33.1167 509.133 31.75C509.133 30.2167 509.466 28.9167 510.133 27.85C510.8 26.7833 511.733 25.9167 512.933 25.25C514.133 24.5833 515.566 24.1 517.233 23.8C518.9 23.5 520.733 23.35 522.733 23.35H525.683V22.3C525.683 20.7333 525.383 19.55 524.783 18.75C524.216 17.9167 523.1 17.5 521.433 17.5C520 17.5 518.933 17.8333 518.233 18.5C517.566 19.1667 517.15 20.0667 516.983 21.2H510.133C510.233 19.6667 510.6 18.3333 511.233 17.2C511.9 16.0667 512.75 15.1333 513.783 14.4C514.816 13.6667 516.016 13.1333 517.383 12.8C518.783 12.4333 520.283 12.25 521.883 12.25C523.483 12.25 524.95 12.4333 526.283 12.8C527.616 13.1333 528.783 13.6833 529.783 14.45C530.75 15.2167 531.5 16.2167 532.033 17.45C532.566 18.6833 532.833 20.1833 532.833 21.95V39H525.783V35.85C525.016 36.9167 524.016 37.8 522.783 38.5C521.583 39.2 519.95 39.55 517.883 39.55ZM520.033 34.5C521.633 34.5 522.966 34.1 524.033 33.3C525.133 32.4667 525.683 31.3167 525.683 29.85V27.65H522.883C520.783 27.65 519.15 27.9167 517.983 28.45C516.816 28.9833 516.233 29.95 516.233 31.35C516.233 32.3167 516.533 33.0833 517.133 33.65C517.733 34.2167 518.7 34.5 520.033 34.5ZM549.192 39.5C546.425 39.5 544.325 38.8167 542.892 37.45C541.458 36.05 540.742 33.9833 540.742 31.25V18H537.392V12.85H540.742V7.2H547.942V12.85H553.442V18H547.942V30.6C547.942 31.6333 548.175 32.4167 548.642 32.95C549.142 33.45 549.875 33.7 550.842 33.7C551.375 33.7 551.858 33.6667 552.292 33.6C552.758 33.5 553.192 33.3667 553.592 33.2V38.8C553.092 38.9667 552.475 39.1167 551.742 39.25C551.008 39.4167 550.158 39.5 549.192 39.5ZM562.825 9.3C561.659 9.3 560.675 8.93333 559.875 8.2C559.109 7.43333 558.725 6.48333 558.725 5.35C558.725 4.21667 559.109 3.28333 559.875 2.55C560.675 1.78333 561.659 1.4 562.825 1.4C563.992 1.4 564.975 1.78333 565.775 2.55C566.575 3.28333 566.975 4.21667 566.975 5.35C566.975 6.48333 566.575 7.43333 565.775 8.2C564.975 8.93333 563.992 9.3 562.825 9.3ZM559.275 12.85H566.475V39H559.275V12.85ZM585.924 34.05C587.957 34.05 589.524 33.35 590.624 31.95C591.757 30.55 592.324 28.6 592.324 26.1V25.75C592.324 23.25 591.757 21.3 590.624 19.9C589.524 18.4667 587.957 17.75 585.924 17.75C583.924 17.75 582.357 18.45 581.224 19.85C580.09 21.2167 579.524 23.15 579.524 25.65V26.05C579.524 28.55 580.074 30.5167 581.174 31.95C582.274 33.35 583.857 34.05 585.924 34.05ZM585.874 39.55C583.907 39.55 582.09 39.2333 580.424 38.6C578.757 37.9667 577.307 37.0667 576.074 35.9C574.84 34.7667 573.874 33.3833 573.174 31.75C572.474 30.0833 572.124 28.2333 572.124 26.2V25.8C572.124 23.7667 572.474 21.9167 573.174 20.25C573.874 18.55 574.84 17.1167 576.074 15.95C577.307 14.7833 578.757 13.8833 580.424 13.25C582.124 12.5833 583.957 12.25 585.924 12.25C587.89 12.25 589.707 12.5667 591.374 13.2C593.074 13.8333 594.54 14.7333 595.774 15.9C596.974 17.0667 597.924 18.4833 598.624 20.15C599.324 21.7833 599.674 23.6167 599.674 25.65V26.05C599.674 28.1167 599.324 29.9833 598.624 31.65C597.924 33.3167 596.957 34.7333 595.724 35.9C594.49 37.0667 593.024 37.9667 591.324 38.6C589.657 39.2333 587.84 39.55 585.874 39.55ZM605.12 12.85H612.37V17C613.037 15.7 614.07 14.5833 615.47 13.65C616.87 12.7167 618.67 12.25 620.87 12.25C622.17 12.25 623.353 12.45 624.42 12.85C625.487 13.25 626.42 13.85 627.22 14.65C627.987 15.4833 628.587 16.55 629.02 17.85C629.453 19.1167 629.67 20.6167 629.67 22.35V39H622.42V23.4C622.42 21.6 622.053 20.2833 621.32 19.45C620.587 18.5833 619.42 18.15 617.82 18.15C616.253 18.15 614.953 18.6333 613.92 19.6C612.887 20.5333 612.37 21.9667 612.37 23.9V39H605.12V12.85ZM26.4133 99.5C23.6466 99.5 21.5466 98.8167 20.1133 97.45C18.6799 96.05 17.9633 93.9833 17.9633 91.25V78H14.6133V72.85H17.9633V67.2H25.1633V72.85H30.6633V78H25.1633V90.6C25.1633 91.6333 25.3966 92.4167 25.8633 92.95C26.3633 93.45 27.0966 93.7 28.0633 93.7C28.5966 93.7 29.0799 93.6667 29.5133 93.6C29.9799 93.5 30.4133 93.3667 30.8133 93.2V98.8C30.3133 98.9667 29.6966 99.1167 28.9633 99.25C28.2299 99.4167 27.3799 99.5 26.4133 99.5ZM48.4969 94.05C50.5302 94.05 52.0969 93.35 53.1969 91.95C54.3302 90.55 54.8969 88.6 54.8969 86.1V85.75C54.8969 83.25 54.3302 81.3 53.1969 79.9C52.0969 78.4667 50.5302 77.75 48.4969 77.75C46.4969 77.75 44.9302 78.45 43.7969 79.85C42.6635 81.2167 42.0969 83.15 42.0969 85.65V86.05C42.0969 88.55 42.6469 90.5167 43.7469 91.95C44.8469 93.35 46.4302 94.05 48.4969 94.05ZM48.4469 99.55C46.4802 99.55 44.6635 99.2333 42.9969 98.6C41.3302 97.9667 39.8802 97.0667 38.6469 95.9C37.4135 94.7667 36.4469 93.3833 35.7469 91.75C35.0469 90.0833 34.6969 88.2333 34.6969 86.2V85.8C34.6969 83.7667 35.0469 81.9167 35.7469 80.25C36.4469 78.55 37.4135 77.1167 38.6469 75.95C39.8802 74.7833 41.3302 73.8833 42.9969 73.25C44.6969 72.5833 46.5302 72.25 48.4969 72.25C50.4635 72.25 52.2802 72.5667 53.9469 73.2C55.6469 73.8333 57.1135 74.7333 58.3469 75.9C59.5469 77.0667 60.4969 78.4833 61.1969 80.15C61.8969 81.7833 62.2469 83.6167 62.2469 85.65V86.05C62.2469 88.1167 61.8969 89.9833 61.1969 91.65C60.4969 93.3167 59.5302 94.7333 58.2969 95.9C57.0635 97.0667 55.5969 97.9667 53.8969 98.6C52.2302 99.2333 50.4135 99.55 48.4469 99.55ZM79.8934 94.05C81.9267 94.05 83.4934 93.35 84.5934 91.95C85.7267 90.55 86.2934 88.6 86.2934 86.1V85.75C86.2934 83.25 85.7267 81.3 84.5934 79.9C83.4934 78.4667 81.9267 77.75 79.8934 77.75C77.8934 77.75 76.3267 78.45 75.1934 79.85C74.06 81.2167 73.4934 83.15 73.4934 85.65V86.05C73.4934 88.55 74.0434 90.5167 75.1434 91.95C76.2434 93.35 77.8267 94.05 79.8934 94.05ZM79.8434 99.55C77.8767 99.55 76.06 99.2333 74.3934 98.6C72.7267 97.9667 71.2767 97.0667 70.0434 95.9C68.81 94.7667 67.8434 93.3833 67.1434 91.75C66.4434 90.0833 66.0934 88.2333 66.0934 86.2V85.8C66.0934 83.7667 66.4434 81.9167 67.1434 80.25C67.8434 78.55 68.81 77.1167 70.0434 75.95C71.2767 74.7833 72.7267 73.8833 74.3934 73.25C76.0934 72.5833 77.9267 72.25 79.8934 72.25C81.86 72.25 83.6767 72.5667 85.3434 73.2C87.0434 73.8333 88.51 74.7333 89.7434 75.9C90.9434 77.0667 91.8934 78.4833 92.5934 80.15C93.2934 81.7833 93.6434 83.6167 93.6434 85.65V86.05C93.6434 88.1167 93.2934 89.9833 92.5934 91.65C91.8934 93.3167 90.9267 94.7333 89.6934 95.9C88.46 97.0667 86.9934 97.9667 85.2934 98.6C83.6267 99.2333 81.81 99.55 79.8434 99.55ZM99.2898 61H106.49V99H99.2898V61ZM136.973 94.05C139.007 94.05 140.573 93.35 141.673 91.95C142.807 90.55 143.373 88.6 143.373 86.1V85.75C143.373 83.25 142.807 81.3 141.673 79.9C140.573 78.4667 139.007 77.75 136.973 77.75C134.973 77.75 133.407 78.45 132.273 79.85C131.14 81.2167 130.573 83.15 130.573 85.65V86.05C130.573 88.55 131.123 90.5167 132.223 91.95C133.323 93.35 134.907 94.05 136.973 94.05ZM136.923 99.55C134.957 99.55 133.14 99.2333 131.473 98.6C129.807 97.9667 128.357 97.0667 127.123 95.9C125.89 94.7667 124.923 93.3833 124.223 91.75C123.523 90.0833 123.173 88.2333 123.173 86.2V85.8C123.173 83.7667 123.523 81.9167 124.223 80.25C124.923 78.55 125.89 77.1167 127.123 75.95C128.357 74.7833 129.807 73.8833 131.473 73.25C133.173 72.5833 135.007 72.25 136.973 72.25C138.94 72.25 140.757 72.5667 142.423 73.2C144.123 73.8333 145.59 74.7333 146.823 75.9C148.023 77.0667 148.973 78.4833 149.673 80.15C150.373 81.7833 150.723 83.6167 150.723 85.65V86.05C150.723 88.1167 150.373 89.9833 149.673 91.65C148.973 93.3167 148.007 94.7333 146.773 95.9C145.54 97.0667 144.073 97.9667 142.373 98.6C140.707 99.2333 138.89 99.55 136.923 99.55ZM157.37 78H153.92V72.85H157.37V69.85C157.37 66.7833 158.187 64.5 159.82 63C161.487 61.4667 163.787 60.7 166.72 60.7C167.487 60.7 168.153 60.75 168.72 60.85C169.32 60.9167 169.903 61.0333 170.47 61.2V66.65C170.103 66.5167 169.703 66.4167 169.27 66.35C168.837 66.25 168.353 66.2 167.82 66.2C166.653 66.2 165.82 66.5333 165.32 67.2C164.82 67.8333 164.57 68.65 164.57 69.65V72.85H170.27V78H164.57V99H157.37V78ZM192.045 71.25L184.795 76V69.1L193.045 63.25H200.145V99H192.045V71.25ZM220.213 99.55C218.013 99.55 216.096 99.2667 214.463 98.7C212.863 98.1333 211.529 97.35 210.463 96.35C209.363 95.35 208.529 94.1667 207.963 92.8C207.396 91.4333 207.063 89.95 206.963 88.35H214.413C214.513 89.1167 214.679 89.8 214.913 90.4C215.146 91 215.479 91.5167 215.913 91.95C216.346 92.4167 216.896 92.7667 217.562 93C218.263 93.2333 219.129 93.35 220.163 93.35C221.996 93.35 223.379 92.7667 224.313 91.6C225.279 90.4333 225.763 88.9 225.763 87C225.763 85.0667 225.246 83.55 224.213 82.45C223.179 81.3167 221.763 80.75 219.963 80.75C218.263 80.75 216.879 81.0167 215.813 81.55C214.746 82.0833 213.846 82.7667 213.113 83.6H208.613L209.113 63.25H231.763V69.4H215.163L215.013 78.35C215.713 77.4833 216.696 76.7167 217.963 76.05C219.263 75.3833 220.929 75.05 222.963 75.05C224.596 75.05 226.079 75.3333 227.413 75.9C228.746 76.4333 229.896 77.2 230.863 78.2C231.829 79.2333 232.579 80.5 233.113 82C233.646 83.5 233.913 85.2 233.913 87.1C233.913 89 233.579 90.7167 232.913 92.25C232.279 93.7833 231.363 95.0833 230.163 96.15C228.963 97.25 227.513 98.1 225.813 98.7C224.146 99.2667 222.279 99.55 220.213 99.55ZM254.466 93.2C256.999 93.2 258.849 92.25 260.016 90.35C261.216 88.45 261.816 85.6167 261.816 81.85V80.25C261.816 76.6167 261.199 73.8333 259.966 71.9C258.733 69.9667 256.866 69 254.366 69C251.866 69 249.983 69.95 248.716 71.85C247.449 73.7167 246.816 76.5167 246.816 80.25V81.95C246.816 85.7167 247.466 88.5333 248.766 90.4C250.066 92.2667 251.966 93.2 254.466 93.2ZM254.266 99.55C251.899 99.55 249.749 99.15 247.816 98.35C245.916 97.55 244.299 96.3833 242.966 94.85C241.599 93.35 240.549 91.5167 239.816 89.35C239.083 87.1833 238.716 84.7333 238.716 82V80.3C238.716 77.5667 239.099 75.1167 239.866 72.95C240.633 70.75 241.699 68.9 243.066 67.4C244.433 65.9 246.066 64.75 247.966 63.95C249.899 63.15 252.016 62.75 254.316 62.75C256.616 62.75 258.716 63.1333 260.616 63.9C262.516 64.6667 264.166 65.7833 265.566 67.25C266.933 68.75 267.983 70.5833 268.716 72.75C269.483 74.9167 269.866 77.3833 269.866 80.15V81.8C269.866 84.5333 269.499 87 268.766 89.2C268.066 91.4 267.049 93.2667 265.716 94.8C264.349 96.3333 262.699 97.5167 260.766 98.35C258.833 99.15 256.666 99.55 254.266 99.55ZM290.696 93.2C293.23 93.2 295.08 92.25 296.246 90.35C297.446 88.45 298.046 85.6167 298.046 81.85V80.25C298.046 76.6167 297.43 73.8333 296.196 71.9C294.963 69.9667 293.096 69 290.596 69C288.096 69 286.213 69.95 284.946 71.85C283.68 73.7167 283.046 76.5167 283.046 80.25V81.95C283.046 85.7167 283.696 88.5333 284.996 90.4C286.296 92.2667 288.196 93.2 290.696 93.2ZM290.496 99.55C288.13 99.55 285.98 99.15 284.046 98.35C282.146 97.55 280.53 96.3833 279.196 94.85C277.83 93.35 276.78 91.5167 276.046 89.35C275.313 87.1833 274.946 84.7333 274.946 82V80.3C274.946 77.5667 275.33 75.1167 276.096 72.95C276.863 70.75 277.93 68.9 279.296 67.4C280.663 65.9 282.296 64.75 284.196 63.95C286.13 63.15 288.246 62.75 290.546 62.75C292.846 62.75 294.946 63.1333 296.846 63.9C298.746 64.6667 300.396 65.7833 301.796 67.25C303.163 68.75 304.213 70.5833 304.946 72.75C305.713 74.9167 306.096 77.3833 306.096 80.15V81.8C306.096 84.5333 305.73 87 304.996 89.2C304.296 91.4 303.28 93.2667 301.946 94.8C300.58 96.3333 298.93 97.5167 296.996 98.35C295.063 99.15 292.896 99.55 290.496 99.55ZM319.777 84.7H310.777V79.25H319.777V69.5H325.677V79.25H334.677V84.7H325.677V94.45H319.777V84.7ZM363.235 99.55C361.335 99.55 359.551 99.2667 357.885 98.7C356.251 98.1 354.835 97.2333 353.635 96.1C352.435 94.9667 351.485 93.5833 350.785 91.95C350.118 90.2833 349.785 88.3833 349.785 86.25V85.85C349.785 83.75 350.135 81.8667 350.835 80.2C351.535 78.5 352.501 77.05 353.735 75.85C354.968 74.6833 356.401 73.8 358.035 73.2C359.668 72.5667 361.418 72.25 363.285 72.25C364.785 72.25 366.235 72.4333 367.635 72.8C369.068 73.1333 370.351 73.7 371.485 74.5C372.585 75.3 373.501 76.35 374.235 77.65C374.968 78.95 375.418 80.5333 375.585 82.4H368.735C368.501 80.9 367.935 79.7833 367.035 79.05C366.168 78.3167 364.968 77.95 363.435 77.95C361.535 77.95 360.018 78.6333 358.885 80C357.751 81.3333 357.185 83.25 357.185 85.75V86.15C357.185 88.7833 357.735 90.7667 358.835 92.1C359.968 93.4333 361.551 94.1 363.585 94.1C365.051 94.1 366.301 93.6833 367.335 92.85C368.401 92.0167 369.018 90.75 369.185 89.05H375.735C375.635 90.6167 375.285 92.05 374.685 93.35C374.085 94.6167 373.251 95.7 372.185 96.6C371.118 97.5333 369.835 98.2667 368.335 98.8C366.835 99.3 365.135 99.55 363.235 99.55ZM393.077 94.05C395.11 94.05 396.677 93.35 397.777 91.95C398.91 90.55 399.477 88.6 399.477 86.1V85.75C399.477 83.25 398.91 81.3 397.777 79.9C396.677 78.4667 395.11 77.75 393.077 77.75C391.077 77.75 389.51 78.45 388.377 79.85C387.244 81.2167 386.677 83.15 386.677 85.65V86.05C386.677 88.55 387.227 90.5167 388.327 91.95C389.427 93.35 391.01 94.05 393.077 94.05ZM393.027 99.55C391.06 99.55 389.244 99.2333 387.577 98.6C385.91 97.9667 384.46 97.0667 383.227 95.9C381.994 94.7667 381.027 93.3833 380.327 91.75C379.627 90.0833 379.277 88.2333 379.277 86.2V85.8C379.277 83.7667 379.627 81.9167 380.327 80.25C381.027 78.55 381.994 77.1167 383.227 75.95C384.46 74.7833 385.91 73.8833 387.577 73.25C389.277 72.5833 391.11 72.25 393.077 72.25C395.044 72.25 396.86 72.5667 398.527 73.2C400.227 73.8333 401.694 74.7333 402.927 75.9C404.127 77.0667 405.077 78.4833 405.777 80.15C406.477 81.7833 406.827 83.6167 406.827 85.65V86.05C406.827 88.1167 406.477 89.9833 405.777 91.65C405.077 93.3167 404.11 94.7333 402.877 95.9C401.644 97.0667 400.177 97.9667 398.477 98.6C396.81 99.2333 394.994 99.55 393.027 99.55ZM412.273 72.85H419.523V76.85C420.19 75.6167 421.19 74.55 422.523 73.65C423.89 72.7167 425.557 72.25 427.523 72.25C429.257 72.25 430.74 72.6167 431.973 73.35C433.24 74.0833 434.19 75.2333 434.823 76.8C435.89 75.2 437.207 74.05 438.773 73.35C440.34 72.6167 441.957 72.25 443.623 72.25C444.823 72.25 445.94 72.45 446.973 72.85C448.04 73.2167 448.973 73.8 449.773 74.6C450.54 75.4333 451.14 76.4833 451.573 77.75C452.007 79.0167 452.223 80.5167 452.223 82.25V99H445.023V83.05C445.023 81.35 444.657 80.1167 443.923 79.35C443.223 78.5833 442.223 78.2 440.923 78.2C439.523 78.2 438.323 78.65 437.323 79.55C436.357 80.4167 435.873 81.75 435.873 83.55V99H428.673V83.05C428.673 81.35 428.307 80.1167 427.573 79.35C426.84 78.5833 425.84 78.2 424.573 78.2C423.173 78.2 421.973 78.65 420.973 79.55C420.007 80.4167 419.523 81.75 419.523 83.55V99H412.273V72.85ZM459.002 72.85H466.252V76.95C466.985 75.6833 468.069 74.5833 469.502 73.65C470.969 72.7167 472.669 72.25 474.602 72.25C476.202 72.25 477.685 72.55 479.052 73.15C480.452 73.7167 481.669 74.5667 482.702 75.7C483.735 76.8333 484.535 78.2333 485.102 79.9C485.702 81.5667 486.002 83.4833 486.002 85.65V86.05C486.002 88.2167 485.702 90.1333 485.102 91.8C484.535 93.4667 483.752 94.8667 482.752 96C481.719 97.1667 480.502 98.05 479.102 98.65C477.735 99.25 476.235 99.55 474.602 99.55C472.569 99.55 470.835 99.1167 469.402 98.25C467.969 97.35 466.919 96.2667 466.252 95V107.9H459.002V72.85ZM472.452 93.9C474.452 93.9 475.985 93.25 477.052 91.95C478.119 90.6167 478.652 88.6667 478.652 86.1V85.7C478.652 83.0333 478.069 81.05 476.902 79.75C475.735 78.45 474.235 77.8 472.402 77.8C470.502 77.8 468.952 78.4667 467.752 79.8C466.585 81.1 466.002 83.0667 466.002 85.7V86.1C466.002 88.7333 466.569 90.7 467.702 92C468.869 93.2667 470.452 93.9 472.452 93.9ZM498.523 99.55C497.323 99.55 496.189 99.4 495.123 99.1C494.089 98.8 493.173 98.3333 492.373 97.7C491.573 97.0667 490.939 96.2667 490.473 95.3C490.006 94.3 489.773 93.1167 489.773 91.75C489.773 90.2167 490.106 88.9167 490.773 87.85C491.439 86.7833 492.373 85.9167 493.573 85.25C494.773 84.5833 496.206 84.1 497.873 83.8C499.539 83.5 501.373 83.35 503.373 83.35H506.323V82.3C506.323 80.7333 506.023 79.55 505.423 78.75C504.856 77.9167 503.739 77.5 502.073 77.5C500.639 77.5 499.573 77.8333 498.873 78.5C498.206 79.1667 497.789 80.0667 497.623 81.2H490.773C490.873 79.6667 491.239 78.3333 491.873 77.2C492.539 76.0667 493.389 75.1333 494.423 74.4C495.456 73.6667 496.656 73.1333 498.023 72.8C499.423 72.4333 500.923 72.25 502.523 72.25C504.123 72.25 505.589 72.4333 506.923 72.8C508.256 73.1333 509.423 73.6833 510.423 74.45C511.389 75.2167 512.139 76.2167 512.673 77.45C513.206 78.6833 513.473 80.1833 513.473 81.95V99H506.423V95.85C505.656 96.9167 504.656 97.8 503.423 98.5C502.223 99.2 500.589 99.55 498.523 99.55ZM500.673 94.5C502.273 94.5 503.606 94.1 504.673 93.3C505.773 92.4667 506.323 91.3167 506.323 89.85V87.65H503.523C501.423 87.65 499.789 87.9167 498.623 88.45C497.456 88.9833 496.873 89.95 496.873 91.35C496.873 92.3167 497.173 93.0833 497.773 93.65C498.373 94.2167 499.339 94.5 500.673 94.5ZM520.281 72.85H527.531V77C528.198 75.7 529.231 74.5833 530.631 73.65C532.031 72.7167 533.831 72.25 536.031 72.25C537.331 72.25 538.515 72.45 539.581 72.85C540.648 73.25 541.581 73.85 542.381 74.65C543.148 75.4833 543.748 76.55 544.181 77.85C544.615 79.1167 544.831 80.6167 544.831 82.35V99H537.581V83.4C537.581 81.6 537.215 80.2833 536.481 79.45C535.748 78.5833 534.581 78.15 532.981 78.15C531.415 78.15 530.115 78.6333 529.081 79.6C528.048 80.5333 527.531 81.9667 527.531 83.9V99H520.281V72.85ZM555.379 69.3C554.212 69.3 553.229 68.9333 552.429 68.2C551.662 67.4333 551.279 66.4833 551.279 65.35C551.279 64.2167 551.662 63.2833 552.429 62.55C553.229 61.7833 554.212 61.4 555.379 61.4C556.546 61.4 557.529 61.7833 558.329 62.55C559.129 63.2833 559.529 64.2167 559.529 65.35C559.529 66.4833 559.129 67.4333 558.329 68.2C557.529 68.9333 556.546 69.3 555.379 69.3ZM551.829 72.85H559.029V99H551.829V72.85ZM578.327 99.55C576.361 99.55 574.544 99.25 572.877 98.65C571.211 98.05 569.777 97.1667 568.577 96C567.344 94.8667 566.377 93.4833 565.677 91.85C565.011 90.2167 564.677 88.35 564.677 86.25V85.85C564.677 83.7833 565.011 81.9167 565.677 80.25C566.377 78.5833 567.344 77.15 568.577 75.95C569.777 74.7833 571.194 73.8833 572.827 73.25C574.461 72.5833 576.227 72.25 578.127 72.25C579.827 72.25 581.444 72.5167 582.977 73.05C584.511 73.55 585.861 74.3333 587.027 75.4C588.194 76.4667 589.127 77.85 589.827 79.55C590.527 81.2167 590.877 83.2167 590.877 85.55V87.55H572.027C572.127 89.75 572.727 91.45 573.827 92.65C574.961 93.8167 576.527 94.4 578.527 94.4C580.227 94.4 581.494 94.0667 582.327 93.4C583.194 92.7333 583.744 91.85 583.977 90.75H590.827C590.394 93.5833 589.094 95.7667 586.927 97.3C584.794 98.8 581.927 99.55 578.327 99.55ZM583.827 83.1C583.694 81.1 583.144 79.6333 582.177 78.7C581.211 77.7333 579.861 77.25 578.127 77.25C576.494 77.25 575.144 77.7667 574.077 78.8C573.044 79.8 572.394 81.2333 572.127 83.1H583.827ZM605.953 99.55C602.42 99.55 599.67 98.8 597.703 97.3C595.736 95.8 594.686 93.6333 594.553 90.8H601.303C601.47 91.9667 601.87 92.8833 602.503 93.55C603.17 94.1833 604.303 94.5 605.903 94.5C607.303 94.5 608.336 94.25 609.003 93.75C609.67 93.25 610.003 92.55 610.003 91.65C610.003 90.75 609.586 90.0833 608.753 89.65C607.953 89.1833 606.603 88.8167 604.703 88.55C602.97 88.2833 601.486 87.95 600.253 87.55C599.053 87.15 598.07 86.6333 597.303 86C596.503 85.3667 595.92 84.6 595.553 83.7C595.22 82.7667 595.053 81.6667 595.053 80.4C595.053 79.0333 595.336 77.85 595.903 76.85C596.503 75.8167 597.286 74.95 598.253 74.25C599.186 73.5833 600.27 73.0833 601.503 72.75C602.77 72.4167 604.07 72.25 605.403 72.25C606.836 72.25 608.17 72.4 609.403 72.7C610.67 72.9667 611.786 73.4167 612.753 74.05C613.686 74.6833 614.453 75.5167 615.053 76.55C615.653 77.5833 616.036 78.85 616.203 80.35H609.553C609.353 79.2833 608.936 78.5 608.303 78C607.67 77.4667 606.72 77.2 605.453 77.2C604.286 77.2 603.37 77.45 602.703 77.95C602.07 78.45 601.753 79.1 601.753 79.9C601.753 80.7333 602.12 81.35 602.853 81.75C603.586 82.15 604.903 82.4833 606.803 82.75C608.436 82.9833 609.886 83.2833 611.153 83.65C612.42 84.0167 613.486 84.5 614.353 85.1C615.186 85.7333 615.82 86.5167 616.253 87.45C616.72 88.3833 616.953 89.55 616.953 90.95C616.953 93.7833 615.986 95.9333 614.053 97.4C612.12 98.8333 609.42 99.55 605.953 99.55Z" fill="black"/>
</svg>
